<svg width="100" height="100" viewBox="0 0 100 100" fill="none" xmlns="http://www.w3.org/2000/svg">
<circle cx="50" cy="50" r="50" fill="#37AEE2"/>
<path d="M78.6038 59.9937C78.9132 59.9937 79.2102 59.8707 79.429 59.6519C79.6478 59.4331 79.7708 59.1361 79.7708 58.8267V53.993C81.1149 53.6507 82.2355 52.7259 82.8274 51.4719C83.4188 50.2174 83.4188 48.7638 82.8274 47.5093C82.2356 46.2552 81.1149 45.3305 79.7708 44.9882V28.8527C80.3392 27.6794 80.4085 26.326 79.962 25.1011C79.5155 23.8762 78.5918 22.8848 77.4019 22.3524L53.4307 11.7221C51.2535 10.7593 48.7714 10.7593 46.5942 11.7221L22.623 22.3524C21.494 22.8661 20.6063 23.7949 20.1447 24.9458C19.6831 26.0972 19.6831 27.382 20.1447 28.5333C20.6062 29.6847 21.494 30.6136 22.623 31.1273L29.0067 33.9584V49.4017C29.0051 51.5701 29.9872 53.6227 31.6768 54.9821C36.9544 58.9781 43.3934 61.1407 50.013 61.1407C56.6326 61.1407 63.0716 58.9781 68.3492 54.9821C70.0387 53.6228 71.0208 51.5701 71.0193 49.4017V33.9584L77.4029 31.1273L77.4379 31.1085V44.9874C76.0937 45.3297 74.9731 46.2544 74.3812 47.5084C73.7899 48.7629 73.7899 50.2165 74.3812 51.471C74.973 52.7251 76.0937 53.6498 77.4379 53.9921V58.8258C77.4379 59.1353 77.5608 59.4322 77.7796 59.651C77.9984 59.8699 78.2954 59.9928 78.6049 59.9928L78.6038 59.9937ZM68.6841 49.402C68.6846 50.866 68.0209 52.2507 66.88 53.1676C62.0181 56.8275 56.0975 58.8068 50.0122 58.8068C43.9269 58.8068 38.0059 56.8275 33.1445 53.1676C32.0035 52.2507 31.3398 50.8659 31.3403 49.402V34.9936L46.5943 41.7623C48.7715 42.7257 51.2535 42.7257 53.4307 41.7623L68.6846 34.9936L68.6841 49.402ZM76.4552 28.9945L52.484 39.6248C50.9096 40.3213 49.1142 40.3213 47.5394 39.6248L23.5695 28.9945C22.9896 28.7304 22.5332 28.2531 22.2962 27.6618C22.0591 27.0705 22.0591 26.4104 22.2962 25.8191C22.5332 25.2273 22.9896 24.75 23.5695 24.4864L47.5407 13.8562H47.5402C49.1152 13.1606 50.9105 13.1606 52.4848 13.8562L76.4561 24.4864C77.0359 24.75 77.4923 25.2273 77.7294 25.8191C77.9664 26.4104 77.9664 27.0705 77.7294 27.6618C77.4923 28.2531 77.0359 28.7304 76.4561 28.9945H76.4552ZM76.2698 49.4913C76.2698 48.8724 76.5157 48.2785 76.9533 47.8408C77.3909 47.4032 77.9849 47.1573 78.6038 47.1573C79.2227 47.1573 79.8167 47.4032 80.2543 47.8408C80.6919 48.2785 80.9378 48.8724 80.9378 49.4913C80.9378 50.1103 80.6919 50.7042 80.2543 51.1418C79.8167 51.5795 79.2227 51.8254 78.6038 51.8254C77.9849 51.8254 77.3909 51.5795 76.9533 51.1418C76.5157 50.7042 76.2698 50.1103 76.2698 49.4913Z" fill="white"/>
<path d="M80.0616 64.6617H20.2516C17.307 64.6617 15 68.2503 15 72.8309C15 77.4114 17.307 81 20.2516 81H80.0616C83.0062 81 85.3132 77.4114 85.3132 72.8309C85.3132 68.2503 83.0062 64.6617 80.0616 64.6617ZM20.2516 78.666C18.8709 78.666 17.334 76.2688 17.334 72.8309C17.334 69.3929 18.8709 66.9958 20.2516 66.9958C21.6323 66.9958 23.1691 69.3929 23.1691 72.8309C23.1691 76.2688 21.6323 78.666 20.2516 78.666ZM44.923 78.6545C44.9475 78.6873 23.9567 78.6545 23.9594 78.666H23.9588C26.0199 75.0487 26.0199 70.613 23.9588 66.9958C23.9588 67.0052 44.8731 66.9781 44.8545 67.0052C46.1898 67.0974 47.6777 69.5132 47.6777 72.8309C47.6777 76.1486 46.1898 78.5644 44.9238 78.6545L44.923 78.6545ZM53.0572 78.6545C53.0817 78.6858 48.4709 78.6545 48.4719 78.666H48.4714C50.5288 75.0466 50.5247 70.6109 48.46 66.9958C48.46 67.0062 53.0217 66.976 53.0009 67.0062C54.3467 67.0692 55.846 69.4777 55.846 72.8309C55.846 76.184 54.3467 78.5925 53.0567 78.6545L53.0572 78.6545ZM80.0613 78.666H56.6489C58.6891 75.0435 58.6891 70.6182 56.6489 66.9958H80.0613C81.442 66.9958 82.9789 69.3929 82.9789 72.8309C82.9789 76.2688 81.442 78.666 80.0613 78.666Z" fill="white"/>
</svg>
