<svg width="100" height="100" viewBox="0 0 100 100" fill="none" xmlns="http://www.w3.org/2000/svg">
<circle cx="50" cy="50" r="50" fill="#37AEE2"/>
<path d="M33.5763 36.2543H64.924C65.5652 36.2543 66.0851 35.7344 66.0851 35.0933C66.0851 34.4521 65.5652 33.9323 64.924 33.9323H33.5763C32.9352 33.9323 32.4153 34.4521 32.4153 35.0933C32.4153 35.7344 32.9352 36.2543 33.5763 36.2543Z" fill="white"/>
<path d="M71.8903 40.8985C71.8903 40.5906 71.7679 40.2952 71.5503 40.0775C71.3326 39.8598 71.0371 39.7375 70.7292 39.7375H28.9323C28.2911 39.7375 27.7712 40.2574 27.7712 40.8985C27.7712 41.5397 28.2911 42.0595 28.9323 42.0595H70.7292C71.0371 42.0595 71.3326 41.9372 71.5503 41.7195C71.7679 41.5018 71.8903 41.2064 71.8903 40.8985Z" fill="white"/>
<path d="M48.6698 47.8646H26.6102C25.9691 47.8646 25.4492 48.3845 25.4492 49.0257C25.4492 49.6668 25.9691 50.1867 26.6102 50.1867H48.6698C49.3109 50.1867 49.8308 49.6668 49.8308 49.0257C49.8308 48.3845 49.3109 47.8646 48.6698 47.8646Z" fill="white"/>
<path d="M26.6102 55.9919H44.0257C44.6668 55.9919 45.1867 55.472 45.1867 54.8308C45.1867 54.1897 44.6668 53.6698 44.0257 53.6698H26.6102C25.9691 53.6698 25.4492 54.1897 25.4492 54.8308C25.4492 55.472 25.9691 55.9919 26.6102 55.9919Z" fill="white"/>
<path d="M30.0933 59.475H26.6102C25.9691 59.475 25.4492 59.9949 25.4492 60.636C25.4492 61.2772 25.9691 61.797 26.6102 61.797H30.0933C30.7345 61.797 31.2544 61.2772 31.2544 60.636C31.2544 59.9949 30.7345 59.475 30.0933 59.475Z" fill="white"/>
<path d="M39.3815 59.475H35.8985C35.2573 59.475 34.7374 59.9949 34.7374 60.636C34.7374 61.2772 35.2573 61.797 35.8985 61.797H39.3815C40.0227 61.797 40.5426 61.2772 40.5426 60.636C40.5426 59.9949 40.0227 59.475 39.3815 59.475Z" fill="white"/>
<path d="M48.6697 59.475H45.1867C44.5455 59.475 44.0256 59.9949 44.0256 60.636C44.0256 61.2772 44.5455 61.797 45.1867 61.797H48.6697C49.3109 61.797 49.8308 61.2772 49.8308 60.636C49.8308 59.9949 49.3109 59.475 48.6697 59.475Z" fill="white"/>
<path d="M81.1785 20H18.483C17.5594 20 16.673 20.367 16.02 21.02C15.3671 21.6731 15 22.5595 15 23.483V73.4072C15 74.3308 15.367 75.2172 16.02 75.8702C16.6731 76.5231 17.5595 76.8902 18.483 76.8902H61.441V87.6785C61.441 88.2942 61.6857 88.8846 62.121 89.32C62.557 89.7553 63.1473 90 63.7631 90C64.3788 90 64.9692 89.7553 65.4046 89.32L68.4072 86.3179L71.4098 89.3205V89.32C71.8452 89.7553 72.4355 90 73.0513 90C73.667 90 74.2574 89.7553 74.6933 89.32C75.1287 88.8846 75.3733 88.2942 75.3733 87.6785V76.8902H81.1785C82.1021 76.8902 82.9885 76.5232 83.6414 75.8702C84.2944 75.2171 84.6615 74.3307 84.6615 73.4072V23.483C84.6615 22.5594 84.2945 21.673 83.6414 21.0201C82.9884 20.3671 82.102 20 81.1785 20V20ZM73.0513 87.6779L70.0487 84.6753C69.6133 84.2405 69.0229 83.9958 68.4072 83.9958C67.7914 83.9958 67.2011 84.2405 66.7657 84.6753L63.7631 87.6779V77.5303C64.0756 77.7231 64.3949 77.9434 64.722 78.1709C67.4954 80.3499 69.7388 80.2608 72.4361 78.0631C72.645 77.9097 72.8492 77.7625 73.0513 77.6231L73.0513 87.6779ZM75.6599 74.2379C73.9717 74.4312 72.3759 75.1107 71.0661 76.1929C68.9866 77.8184 68.1728 77.8754 66.0504 76.2717C64.6675 75.1889 63.0067 74.5177 61.26 74.3352C60.325 74.2953 59.4195 73.9994 58.6415 73.4795C58.0849 72.6896 57.763 71.7581 57.7127 70.7931C57.5184 69.1034 56.8373 67.5069 55.752 66.1977C54.1369 64.1706 54.0741 63.2521 55.6732 61.1808C56.7554 59.798 57.4267 58.1383 57.6097 56.3916C57.8999 53.7906 58.5836 53.1717 61.1509 52.8375C62.8391 52.6452 64.4354 51.9678 65.7463 50.8871C67.8258 49.2617 68.6385 49.2046 70.761 50.8083H70.7605C72.1444 51.8906 73.805 52.5602 75.5522 52.7401C78.1541 53.0304 78.7721 53.7141 79.1074 56.2833C79.3007 57.9721 79.9797 59.5679 81.0624 60.8777C82.6786 62.9058 82.7392 63.8222 81.1412 65.8954C80.0584 67.2778 79.3877 68.9375 79.2048 70.6837C78.9109 73.2903 78.2272 73.9035 75.66 74.2377L75.6599 74.2379ZM53.8831 67.5676C54.4791 68.2471 54.9135 69.0521 55.154 69.9234H28.8497C28.5963 68.1875 27.7898 66.5803 26.5494 65.3399C25.3091 64.0996 23.7018 63.293 21.966 63.0396V33.8494C23.7018 33.5959 25.3091 32.7894 26.5494 31.5491C27.7898 30.3088 28.5963 28.7015 28.8497 26.9656H70.8112C71.0647 28.7015 71.8712 30.3087 73.1115 31.5491C74.3519 32.7894 75.9592 33.596 77.695 33.8494V50.8123C77.1109 50.6584 76.519 50.5376 75.9208 50.4516C74.5172 50.3329 73.182 49.7938 72.0894 48.905C69.5015 46.7243 66.9006 46.8499 64.3769 49.0128C63.3584 49.8898 62.0921 50.4267 60.7544 50.5501C57.32 50.9378 55.6562 52.5492 55.3182 56.023C55.199 57.4271 54.6595 58.7623 53.7695 59.8544C51.5998 62.5911 51.6879 64.9048 53.8825 67.5685L53.8831 67.5676ZM82.3395 73.4065C82.3395 73.7143 82.2172 74.0098 81.9995 74.2275C81.7818 74.4452 81.4864 74.5675 81.1785 74.5675H80.3098C80.9867 73.5106 81.3931 72.3039 81.4931 71.0534C81.5703 70.08 81.8595 69.1351 82.3395 68.2851V73.4065ZM82.3395 58.6714C81.8005 57.8343 81.476 56.8774 81.3957 55.8849C81.2785 54.5512 80.8022 53.2741 80.0174 52.1892V32.7702C80.0174 32.4624 79.8951 32.1669 79.6774 31.9492C79.4597 31.7315 79.1643 31.6092 78.8564 31.6092C77.3175 31.6071 75.8418 30.995 74.7534 29.9071C73.6654 28.8186 73.0534 27.343 73.0512 25.8041C73.0512 25.4962 72.9289 25.2008 72.7112 24.9831C72.4935 24.7654 72.1981 24.643 71.8902 24.643H27.7712C27.13 24.643 26.6102 25.1629 26.6102 25.8041C26.6081 27.343 25.996 28.8186 24.908 29.9071C23.8196 30.995 22.344 31.6071 20.805 31.6092C20.1639 31.6092 19.644 32.1291 19.644 32.7702V64.118C19.644 64.4258 19.7663 64.7213 19.984 64.939C20.2017 65.1567 20.4971 65.279 20.805 65.279C22.344 65.2811 23.8196 65.8932 24.908 66.9811C25.996 68.0696 26.608 69.5452 26.6102 71.0841C26.6102 71.392 26.7325 71.6875 26.9502 71.9051C27.1679 72.1228 27.4633 72.2452 27.7712 72.2452H55.6186C55.7699 73.0734 56.0856 73.8633 56.5474 74.5672H18.483C17.8418 74.5672 17.3219 74.0473 17.3219 73.4062V23.482C17.3219 22.8409 17.8418 22.321 18.483 22.321H81.1784C81.4863 22.321 81.7818 22.4433 81.9995 22.661C82.2171 22.8787 82.3395 23.1741 82.3395 23.482L82.3395 58.6714Z" fill="white"/>
<path d="M68.4071 55.603C66.3023 55.603 64.284 56.4391 62.7959 57.9272C61.3078 59.4153 60.4717 61.4336 60.4717 63.5385C60.4717 65.6433 61.3077 67.6617 62.7959 69.1498C64.284 70.6379 66.3023 71.4739 68.4071 71.4739C70.512 71.4739 72.5303 70.6379 74.0184 69.1498C75.5065 67.6617 76.3426 65.6433 76.3426 63.5385C76.3405 61.4347 75.5034 59.4173 74.0159 57.9297C72.5283 56.4422 70.511 55.605 68.4071 55.603ZM68.4071 69.1519V69.1514C66.9185 69.1514 65.4906 68.56 64.4379 67.5072C63.3852 66.4545 62.7937 65.0266 62.7937 63.538C62.7937 62.0493 63.3851 60.6215 64.4379 59.5687C65.4906 58.516 66.9185 57.9246 68.4071 57.9246C69.8958 57.9246 71.3236 58.516 72.3764 59.5687C73.4291 60.6214 74.0205 62.0493 74.0205 63.538C74.019 65.0261 73.4271 66.453 72.3744 67.5051C71.3222 68.5578 69.8952 69.1498 68.4073 69.1512L68.4071 69.1519Z" fill="white"/>
<path d="M49.8308 54.8308C49.8308 55.472 49.311 55.9919 48.6698 55.9919C48.0287 55.9919 47.5088 55.472 47.5088 54.8308C47.5088 54.1897 48.0287 53.6698 48.6698 53.6698C49.311 53.6698 49.8308 54.1897 49.8308 54.8308Z" fill="white"/>
</svg>
