<svg width="100" height="100" viewBox="0 0 100 100" fill="none" xmlns="http://www.w3.org/2000/svg">
<circle cx="50" cy="50" r="50" fill="#37AEE2"/>
<path d="M30.9623 31.7906V43.3746H33.3264L33.327 32.9723H39.8558V30.6071H32.1446C31.4926 30.6077 30.9622 31.1368 30.9622 31.7906L30.9623 31.7906Z" fill="white"/>
<path d="M30.9623 44.8503H33.3263V47.2407H30.9623V44.8503Z" fill="white"/>
<path d="M87.0373 44.1465C87.0012 44.1221 86.9645 44.0982 86.926 44.0762C86.7709 43.9907 83.643 42.3129 79.9584 44.0946V28.2128H81.5649C82.2175 28.2128 82.7473 27.6837 82.7473 27.0305V19.1823C82.7473 18.5292 82.2181 18 81.5649 18H24.5858C23.9332 18 23.4035 18.5292 23.4035 19.1823V27.0305C23.4035 27.6837 23.9326 28.2128 24.5858 28.2128H26.1904V58.5169C25.2513 59.4664 24.3634 60.4055 23.5215 61.3026L21.5826 59.3638C21.1378 58.9208 20.3545 58.9208 19.9097 59.3638L11.3455 67.9299C10.8847 68.3918 10.8847 69.1415 11.3461 69.6028L29.399 87.6542C29.6294 87.8851 29.9318 88 30.2349 88C30.538 88 30.8404 87.8851 31.0708 87.6542L39.635 79.0899C39.8574 78.8693 39.9821 78.5681 39.9821 78.2553C39.9821 77.9406 39.8574 77.6412 39.6363 77.4188L36.853 74.6368C36.8817 74.5958 36.9159 74.5543 36.9605 74.5115C37.8117 73.6768 40.463 73.3377 42.1097 73.3768H62.5309C62.7607 73.3683 68.1714 73.1238 71.392 69.2518L88.0684 49.3343C88.088 49.3116 88.1069 49.286 88.1246 49.2609C88.9507 48.1061 89.34 45.7891 87.0376 44.1466L87.0373 44.1465ZM25.769 25.848V20.3652H80.3845V25.848H25.769ZM28.5552 28.2133H77.5942V45.7015L65.9101 55.8422C65.7342 55.2727 65.4396 54.658 64.9398 54.1173C64.0893 53.1959 62.8947 52.729 61.3879 52.729C61.0017 52.729 60.61 52.7345 60.2178 52.7394C57.3777 52.7736 54.6971 52.8078 52.6055 51.0829C49.8008 48.7714 47.1771 48.852 44.1433 48.9474C43.7455 48.9608 43.3337 48.973 42.9066 48.9816C37.5289 49.0861 32.6767 52.4322 28.5565 56.2284L28.5559 28.2144L28.5552 28.2133ZM37.1281 78.2565L30.2357 85.1478L13.855 68.7686L20.7473 61.8756L37.1281 78.2565ZM86.2171 47.8664L69.5783 67.7385C67.0412 70.7907 62.4879 71.0131 62.4891 71.0149H42.1352C41.6421 71.0063 37.206 70.9629 35.3081 72.8223C35.261 72.8688 35.2274 72.9213 35.1847 72.9696L25.1949 62.9793C25.2377 62.9328 25.2805 62.8882 25.3226 62.8424C26.2661 61.8384 27.2737 60.7795 28.3369 59.7206H28.5551V59.5019C32.6972 55.4092 37.6668 51.4515 42.9516 51.3483C43.3885 51.3397 43.8088 51.3275 44.2158 51.3141C47.1897 51.223 48.9819 51.1668 51.1003 52.91C53.8598 55.183 57.2516 55.1422 60.2457 55.1042C60.6294 55.1005 61.0095 55.0957 61.3871 55.0957C62.2114 55.0957 62.8028 55.2973 63.1933 55.7134C63.8618 56.4259 63.7952 57.5936 63.7952 57.5947C63.7927 57.6271 63.7915 57.6576 63.7915 57.6882C63.7915 59.3466 61.885 59.7432 61.466 59.8096L45.7031 59.8102V62.1768H61.552C61.6003 62.1768 61.6485 62.1731 61.6968 62.1682C63.0179 62.0051 65.341 61.113 65.9844 58.9121L79.4216 47.2499C82.4565 44.6708 85.3089 45.913 85.7273 46.1183C86.6604 46.8203 86.4416 47.5114 86.2174 47.8671L86.2171 47.8664Z" fill="white"/>
<path d="M64.9783 39.2535H75.045V41.6176H64.9783V39.2535Z" fill="white"/>
<path d="M64.9783 48.4012H69.3742V50.7672H64.9783V48.4012Z" fill="white"/>
<path d="M64.9783 43.9791H75.045V46.345H64.9783V43.9791Z" fill="white"/>
<path d="M47.1632 39.8512H58.9892C61.2518 39.8512 63.0922 38.0107 63.0922 35.7486C63.0922 33.486 61.2517 31.6456 58.9892 31.6456H47.1632C44.9005 31.6456 43.0602 33.4861 43.0602 35.7486C43.0602 38.0107 44.9007 39.8512 47.1632 39.8512ZM47.1632 34.0122H58.9892C59.9473 34.0122 60.7269 34.7919 60.7269 35.7493C60.7269 36.7067 59.9466 37.4864 58.9892 37.4864H47.1632C46.2051 37.4864 45.4255 36.7061 45.4255 35.7493C45.4242 34.7906 46.2045 34.0122 47.1632 34.0122Z" fill="white"/>
</svg>
