<svg width="100" height="100" viewBox="0 0 100 100" fill="none" xmlns="http://www.w3.org/2000/svg">
<circle cx="50" cy="50" r="50" fill="#37AEE2"/>
<path d="M81.9 16.9989H75.2999C74.6924 16.9989 74.1998 17.4915 74.1998 18.0989V18.5193L71.8558 17.3466C71.3972 17.1182 70.8923 16.9994 70.3807 16.9989H54.2587C53.5103 16.9994 52.784 17.2548 52.1996 17.7228L47.6006 21.399H29.0988C28.4913 21.399 27.9988 21.8915 27.9988 22.499V40.0994C27.9988 40.3911 28.1147 40.671 28.3209 40.8773C28.5272 41.0835 28.8071 41.1994 29.0988 41.1994H62.0996C62.3913 41.1994 62.6712 41.0835 62.8774 40.8773C63.0837 40.671 63.1996 40.3911 63.1996 40.0994V31.7923C66.065 32.9228 69.293 32.6595 71.9369 31.0792L73.4077 30.1992H74.1998V31.2992C74.1998 31.5909 74.3157 31.8709 74.522 32.0771C74.7282 32.2834 75.0081 32.3993 75.2998 32.3993H81.9C82.1917 32.3993 82.4716 32.2834 82.6779 32.0771C82.8841 31.8708 83 31.5909 83 31.2992V18.0989C83 17.8072 82.8841 17.5273 82.6779 17.3211C82.4716 17.1148 82.1917 16.9989 81.9 16.9989H81.9ZM30.1988 38.9994V23.5991H56.5215L55.2884 24.8331C54.4786 25.6714 54.1712 26.8745 54.4796 27.9987C54.7875 29.1223 55.6655 30.0004 56.7896 30.3088C57.9132 30.6167 59.1164 30.3092 59.9547 29.4994L60.9997 28.4544V38.9995L30.1988 38.9994ZM73.0935 27.9992C72.8961 28.0001 72.7026 28.0542 72.5332 28.1563L70.8051 29.1925C68.7264 30.4344 66.186 30.6304 63.9412 29.7229L63.1997 29.4213V26.2544L64.5967 24.8573L65.1644 25.0464V25.0469C66.7457 25.5704 68.4537 25.5704 70.035 25.0469L71.245 24.6432C71.8225 24.4512 72.1343 23.8275 71.9428 23.2505C71.7508 22.6735 71.1271 22.3612 70.5501 22.5532L69.3401 22.9578C68.2106 23.332 66.9907 23.332 65.8618 22.9578L64.6517 22.5532C64.2564 22.4215 63.8208 22.5247 63.5262 22.8193L61.3261 25.0194L58.3993 27.9443C57.9696 28.3735 57.2733 28.3735 56.8436 27.9443C56.4143 27.5146 56.4143 26.8183 56.8436 26.3891L61.1184 22.1132C61.5354 21.6815 61.5295 20.9955 61.1052 20.5711C60.6809 20.1468 59.9944 20.1409 59.5631 20.5574L58.7214 21.3991H51.1225L53.571 19.4402C53.7665 19.284 54.0086 19.199 54.2586 19.199H70.3805C70.5509 19.1995 70.7189 19.2393 70.8721 19.3144L74.1997 20.9787V27.9913L73.0935 27.9992ZM80.8001 30.1992H76.4V19.199H80.8001V30.1992Z" fill="white"/>
<path d="M45.5992 27.9991C45.8909 27.9991 46.1709 28.115 46.3771 28.3213C46.5834 28.5276 46.6993 28.8075 46.6993 29.0992H48.8993C48.8964 28.419 48.6837 27.7565 48.2899 27.2021C47.896 26.6477 47.3406 26.2283 46.6993 26.0014V24.6991H44.4992V26.0014C43.5136 26.3486 42.751 27.1432 42.445 28.1425C42.139 29.1418 42.3257 30.2271 42.9479 31.0669C43.5701 31.9067 44.5542 32.4012 45.5993 32.3993C46.0442 32.3993 46.4454 32.6674 46.6153 33.0784C46.7857 33.4895 46.6919 33.9624 46.3771 34.2772C46.0624 34.592 45.5894 34.6858 45.1784 34.5153C44.7674 34.3454 44.4992 33.9442 44.4992 33.4993H42.2992C42.3021 34.1795 42.5148 34.842 42.9086 35.3964C43.3025 35.9508 43.8579 36.3702 44.4992 36.5971V37.8994H46.6993V36.5971C47.6849 36.2499 48.4475 35.4553 48.7535 34.456C49.0595 33.4567 48.8728 32.3713 48.2506 31.5315C47.6284 30.6918 46.6443 30.1973 45.5992 30.1992C44.9918 30.1992 44.4992 29.7066 44.4992 29.0992C44.4992 28.4917 44.9918 27.9991 45.5992 27.9991Z" fill="white"/>
<path d="M38.999 30.1992H36.799C36.1915 30.1992 35.699 30.6918 35.699 31.2992C35.699 31.9067 36.1915 32.3993 36.799 32.3993H38.999C39.6065 32.3993 40.0991 31.9067 40.0991 31.2992C40.0991 30.6918 39.6065 30.1992 38.999 30.1992Z" fill="white"/>
<path d="M54.3994 30.1992H52.1993C51.5919 30.1992 51.0993 30.6918 51.0993 31.2992C51.0993 31.9067 51.5919 32.3993 52.1993 32.3993H54.3994C55.0068 32.3993 55.4994 31.9067 55.4994 31.2992C55.4994 30.6918 55.0068 30.1992 54.3994 30.1992Z" fill="white"/>
<path d="M62.6037 69.5513C62.1686 68.7896 61.4477 68.2338 60.6005 68.0063C59.7539 67.779 58.8513 67.8998 58.0936 68.3413L51.024 72.4114H51.0235C50.8659 71.6728 50.4598 71.0107 49.8729 70.5359C49.2866 70.061 48.5544 69.8012 47.7996 69.8007H39.3294L39.1094 69.6534C37.1426 68.3373 34.8321 67.6282 32.465 67.6154C30.0985 67.6026 27.78 68.2862 25.7991 69.5808V68.7007C25.7991 68.409 25.6832 68.1291 25.477 67.9229C25.2707 67.7166 24.9908 67.6007 24.6991 67.6007H18.0989C17.4915 67.6007 16.9989 68.0933 16.9989 68.7007V81.901C16.9989 82.1927 17.1148 82.4727 17.3211 82.6789C17.5273 82.8852 17.8072 83.0011 18.0989 83.0011H24.6991C24.9908 83.0011 25.2707 82.8852 25.477 82.6789C25.6832 82.4727 25.7991 82.1927 25.7991 81.901V81.7513L26.8264 82.4334C27.3701 82.8032 28.0124 83.0011 28.67 83.0011H45.0056C45.5856 83.006 46.1558 82.8537 46.6557 82.5611L61.396 74.0579C62.417 73.4637 63.0456 72.3721 63.0461 71.1909C63.0461 70.6149 62.8933 70.0492 62.6041 69.5512L62.6037 69.5513ZM23.5987 80.8009H19.1986V69.8007H23.5987V80.8009ZM60.2955 72.1481L45.5389 80.6615C45.3768 80.7558 45.1926 80.8039 45.005 80.801H28.6694C28.4508 80.8015 28.2367 80.7352 28.057 80.6105L25.7985 79.1112V72.0007C26.015 72.0007 26.2272 71.9369 26.4079 71.8171L26.9073 71.4871C28.5324 70.3993 30.4436 69.8188 32.3992 69.8188C34.3547 69.8188 36.266 70.3992 37.891 71.4871L38.3894 71.8171C38.5702 71.9369 38.7823 72.0007 38.9989 72.0007H47.7991C48.4065 72.0007 48.8991 72.4933 48.8991 73.1007C48.8991 73.7082 48.4065 74.2008 47.7991 74.2008H41.1989C40.5915 74.2008 40.0989 74.6933 40.0989 75.3008C40.0989 75.9083 40.5915 76.4008 41.1989 76.4008H47.7991C48.604 76.3984 49.3798 76.0988 49.978 75.5606L59.204 70.2407C59.4515 70.0949 59.7476 70.0551 60.0246 70.1307C60.3094 70.2064 60.552 70.3935 60.6969 70.6498C60.7932 70.8124 60.8447 70.998 60.8452 71.1866C60.8462 71.5824 60.6365 71.9482 60.2952 72.1481H60.2955Z" fill="white"/>
<path d="M59.8995 45.5995H31.2989C30.6914 45.5995 30.1989 46.092 30.1989 46.6995V66.5C30.1989 66.7917 30.3147 67.0716 30.521 67.2778C30.7273 67.4841 31.0072 67.6 31.2989 67.6H59.8995C60.1912 67.6 60.4711 67.4841 60.6774 67.2778C60.8837 67.0716 60.9995 66.7917 60.9995 66.5V46.6995C60.9995 46.4078 60.8837 46.1279 60.6774 45.9216C60.4711 45.7154 60.1912 45.5995 59.8995 45.5995ZM46.6992 47.7995V52.1996H44.4992V47.7995H46.6992ZM58.7995 65.3999H32.3989V47.7995H42.2991V53.2997C42.2991 53.5914 42.415 53.8713 42.6213 54.0775C42.8275 54.2838 43.1075 54.3997 43.3992 54.3997H47.7993C48.091 54.3997 48.3709 54.2838 48.5771 54.0775C48.7834 53.8713 48.8993 53.5914 48.8993 53.2997V47.7995H58.7995V65.3999Z" fill="white"/>
<path d="M38.999 58.7998H34.5989C33.9915 58.7998 33.4989 59.2924 33.4989 59.8998C33.4989 60.5073 33.9915 60.9999 34.5989 60.9999H38.999C39.6065 60.9999 40.0991 60.5073 40.0991 59.8998C40.0991 59.2924 39.6065 58.7998 38.999 58.7998Z" fill="white"/>
<path d="M43.3991 58.7998H42.2991C41.6917 58.7998 41.1991 59.2924 41.1991 59.8998C41.1991 60.5073 41.6917 60.9999 42.2991 60.9999H43.3991C44.0066 60.9999 44.4992 60.5073 44.4992 59.8998C44.4992 59.2924 44.0066 58.7998 43.3991 58.7998Z" fill="white"/>
<path d="M38.999 62.1H34.5989C33.9915 62.1 33.4989 62.5925 33.4989 63.2C33.4989 63.8075 33.9915 64.3 34.5989 64.3H38.999C39.6065 64.3 40.0991 63.8075 40.0991 63.2C40.0991 62.5925 39.6065 62.1 38.999 62.1Z" fill="white"/>
<path d="M43.3991 62.1H42.2991C41.6917 62.1 41.1991 62.5925 41.1991 63.2C41.1991 63.8075 41.6917 64.3 42.2991 64.3H43.3991C44.0066 64.3 44.4992 63.8075 44.4992 63.2C44.4992 62.5925 44.0066 62.1 43.3991 62.1Z" fill="white"/>
</svg>
