<svg width="100" height="100" viewBox="0 0 100 100" fill="none" xmlns="http://www.w3.org/2000/svg">
<circle cx="50" cy="50" r="50" fill="#37AEE2"/>
<path d="M55.9151 45.2376C57.1552 45.1585 58.3115 44.5814 59.1209 43.6381C59.5115 43.1334 59.4235 42.4084 58.9245 42.0116C58.425 41.6142 57.699 41.6918 57.2947 42.1856C56.939 42.6345 56.3916 42.8882 55.8192 42.8694C55.2469 42.8507 54.7172 42.5621 54.3911 42.0913C53.9333 41.6491 53.2057 41.6553 52.7556 42.1054C52.3056 42.5554 52.2994 43.283 52.7415 43.7408C53.5593 44.6408 54.7004 45.1789 55.9151 45.2378L55.9151 45.2376Z" fill="white"/>
<path d="M42.6216 42.0909C42.4049 41.868 42.1075 41.7425 41.7971 41.7425C41.4861 41.7425 41.1887 41.868 40.9721 42.0909C40.5163 42.5462 40.5163 43.2847 40.9721 43.7404C41.7893 44.6404 42.9299 45.179 44.144 45.2374C45.3846 45.1577 46.5404 44.5816 47.3503 43.639C47.7372 43.1343 47.6487 42.4129 47.1513 42.0165C46.6539 41.6207 45.931 41.6957 45.5258 42.1853C45.1612 42.6197 44.6175 42.8629 44.0509 42.8441C43.4842 42.8259 42.9571 42.5478 42.6216 42.091L42.6216 42.0909Z" fill="white"/>
<path d="M50.0003 58.8337C48.7628 58.8337 47.5758 59.3254 46.7003 60.2004C45.8253 61.076 45.3336 62.263 45.3336 63.5005C45.3336 64.7379 45.8253 65.925 46.7003 66.8005C47.5758 67.6755 48.7629 68.1672 50.0003 68.1672C51.2378 68.1672 52.4249 67.6755 53.3004 66.8005C54.1754 65.925 54.6671 64.7379 54.6671 63.5005C54.6671 62.263 54.1754 61.0759 53.3004 60.2004C52.4249 59.3254 51.2378 58.8337 50.0003 58.8337ZM50.0003 65.8338C49.3816 65.8338 48.7878 65.588 48.3503 65.1505C47.9128 64.713 47.667 64.1192 47.667 63.5005C47.667 62.8817 47.9128 62.2879 48.3503 61.8504C48.7878 61.4129 49.3816 61.1671 50.0003 61.1671C50.6191 61.1671 51.2129 61.4129 51.6504 61.8504C52.0879 62.2879 52.3337 62.8817 52.3337 63.5005C52.3337 64.1192 52.0879 64.713 51.6504 65.1505C51.2129 65.588 50.6191 65.8338 50.0003 65.8338Z" fill="white"/>
<path d="M45.3336 53.0004C45.3336 53.6447 44.8112 54.1671 44.1669 54.1671C43.5227 54.1671 43.0002 53.6447 43.0002 53.0004C43.0002 52.3561 43.5227 51.8337 44.1669 51.8337C44.8112 51.8337 45.3336 52.3561 45.3336 53.0004Z" fill="white"/>
<path d="M39.5002 51.8337H32.5001C31.8558 51.8337 31.3334 52.3561 31.3334 53.0004C31.3334 53.6447 31.8558 54.1671 32.5001 54.1671H39.5002C40.1445 54.1671 40.6669 53.6447 40.6669 53.0004C40.6669 52.3561 40.1445 51.8337 39.5002 51.8337Z" fill="white"/>
<path d="M82.6674 74.0006H79.4007C78.2882 70.4527 76.183 67.2979 73.334 64.9088V50.6673C73.3309 49.9459 73.1054 49.2432 72.6876 48.6552C72.2699 48.0672 71.6808 47.6224 71.0007 47.3818V27.5482C71.0007 18.5752 61.3839 11 50.0004 11C38.6169 11 29.0001 18.575 29.0001 27.5429V47.3765C28.3194 47.6171 27.7298 48.0624 27.3121 48.6515C26.8944 49.2405 26.6689 49.9447 26.6668 50.6666V64.9081C23.8178 67.2972 21.7126 70.4519 20.6001 73.9999H17.3334C16.7146 73.9999 16.1208 74.2458 15.6833 74.6833C15.2458 75.1208 15 75.7145 15 76.3333V78.6666C15 79.2854 15.2458 79.8792 15.6833 80.3167C16.1208 80.7542 16.7146 81 17.3334 81H82.6675C83.2863 81 83.88 80.7542 84.3175 80.3167C84.755 79.8792 85.0009 79.2854 85.0009 78.6666V76.3333C85.0009 75.7145 84.755 75.1208 84.3175 74.6833C83.88 74.2458 83.2863 73.9999 82.6675 73.9999L82.6674 74.0006ZM73.334 68.0984C74.9267 69.8006 76.157 71.8089 76.9507 74.0006H73.334V68.0984ZM31.3335 27.5432C31.3335 19.9729 40.0565 13.3337 50.0004 13.3337C59.9442 13.3337 68.6673 19.9734 68.6673 27.5432V35.5001H67.5006V27.5432C67.5006 20.6181 59.6593 14.8499 50.023 14.6634C42.3063 14.5092 32.5068 19.3931 32.5002 27.5432V35.5001H31.3335V27.5432ZM45.959 31.1834C45.5767 30.9407 45.0887 30.9407 44.7069 31.1834L34.8333 37.4627C34.8333 37.4627 34.7984 29.9891 34.8333 27.499C34.9265 20.5349 43.8053 16.9171 49.9788 16.9988C58.2117 17.1015 65.167 21.977 65.167 27.5432C65.167 30.4063 65.1472 39.0002 65.1472 39.0002C56.5487 37.858 46.0643 31.2454 45.959 31.1834H45.959ZM61.6672 40.6929V45.4169C61.6568 46.007 61.5786 46.5946 61.4339 47.167H38.5669C38.4221 46.5946 38.344 46.007 38.3336 45.4169V38.0018L45.343 33.5403C50.4337 36.6559 55.9259 39.0627 61.6672 40.693V40.6929ZM64.0005 41.17C64.2818 41.2168 64.5641 41.2705 64.8428 41.3075V41.308C65.5172 41.397 66.1974 41.1918 66.7094 40.7444C67.2131 40.3022 67.5022 39.6647 67.5027 38.9944V37.8335H68.6693V47.1669H64.0005L64.0005 41.17ZM31.3335 37.8335H32.5502C32.6632 38.5913 33.147 39.2429 33.8392 39.571C34.532 39.8986 35.3423 39.8596 36.0002 39.4668V47.1669H31.3335V37.8335ZM29.0001 50.667C29.0001 50.0227 29.5225 49.5003 30.1668 49.5003H69.834C70.1433 49.5003 70.4402 49.6233 70.659 49.842C70.8777 50.0608 71.0006 50.3576 71.0006 50.667V74.0006H29.0001V50.667ZM26.6667 68.0979V74.0001H23.05C23.8443 71.8083 25.0746 69.8006 26.6667 68.0979ZM17.3333 78.6668V76.3335H82.6674V78.6668H17.3333Z" fill="white"/>
</svg>
