<svg width="108" height="77" viewBox="0 0 108 77" fill="none" xmlns="http://www.w3.org/2000/svg">
<path d="M106.033 77H1.04691C0.46888 77 0 76.5311 0 75.9531C0 75.375 0.46886 74.9062 1.04691 74.9062H106.033C106.612 74.9062 107.08 75.375 107.08 75.9531C107.08 76.5311 106.612 77 106.033 77Z" fill="white"/>
<path d="M68.1426 77H62.4848C61.906 77 61.4379 76.5311 61.4379 75.9531V62.6312C61.4379 61.2463 62.1767 59.9668 63.3754 59.2744C64.5748 58.5819 66.0524 58.5819 67.2519 59.2744C68.4506 59.9669 69.1894 61.2464 69.1894 62.6312V75.9531C69.1894 76.2305 69.0795 76.4967 68.8828 76.6934C68.6869 76.8901 68.4207 77 68.1425 77H68.1426ZM63.531 74.9061H67.0957V62.6312C67.0957 61.6471 66.2978 60.8492 65.3137 60.8492C64.3296 60.8492 63.5317 61.6471 63.5317 62.6312L63.531 74.9061Z" fill="white"/>
<path d="M84.5886 77H79.3055C78.7267 77 78.2585 76.5311 78.2585 75.9531V65.4003C78.2585 64.0827 78.9615 62.8645 80.1026 62.2056C81.2437 61.5468 82.6496 61.5468 83.7908 62.2056C84.9319 62.8644 85.6355 64.0826 85.6355 65.4003V75.9531C85.6355 76.2305 85.5249 76.4967 85.3289 76.6934C85.1323 76.89 84.8661 77 84.5886 77H84.5886ZM80.3524 74.9061H83.5417V65.4002C83.5417 64.5193 82.8276 63.806 81.9467 63.806C81.0658 63.806 80.3524 64.5194 80.3524 65.4002L80.3524 74.9061Z" fill="white"/>
<path d="M95.7435 77H90.4672C89.8892 77 89.4203 76.5311 89.4203 75.9531V65.4003C89.4203 64.0827 90.1232 62.8653 91.2643 62.2064C92.4047 61.5476 93.8106 61.5476 94.9517 62.2064C96.0929 62.8652 96.7958 64.0826 96.7958 65.4003V75.9531C96.7958 76.2313 96.6844 76.499 96.4869 76.6949C96.2895 76.8915 96.0218 77.0015 95.7436 77H95.7435ZM91.5088 74.9061H94.6966V65.4002C94.6966 64.5201 93.9832 63.8067 93.103 63.8067C92.2229 63.8067 91.5087 64.5201 91.5087 65.4002L91.5088 74.9061Z" fill="white"/>
<path d="M44.8106 77H39.1528C38.5747 77 38.1058 76.5311 38.1058 75.9531V62.6312C38.1058 61.2463 38.8447 59.9668 40.0433 59.2744C41.2428 58.5819 42.7203 58.5819 43.9199 59.2744C45.1186 59.9669 45.8574 61.2464 45.8574 62.6312V75.9531C45.8574 76.2305 45.7475 76.4967 45.5508 76.6934C45.3549 76.8901 45.0886 77 44.8105 77H44.8106ZM40.1989 74.9061H43.7636V62.6312C43.7636 61.6471 42.9657 60.8492 41.9816 60.8492C40.9976 60.8492 40.1997 61.6471 40.1997 62.6312L40.1989 74.9061Z" fill="white"/>
<path d="M45.1418 38.7017H39.8594C39.2814 38.7017 38.8125 38.2329 38.8125 37.6548V33.4059C38.8125 32.0883 39.5154 30.871 40.6565 30.2121C41.7977 29.5533 43.2036 29.5533 44.3447 30.2121C45.4858 30.8709 46.1888 32.0883 46.1888 33.4059V37.6571C46.188 38.2344 45.7191 38.7018 45.1418 38.7018V38.7017ZM40.9064 36.6078H44.0949V33.4057C44.0949 32.5256 43.3807 31.8114 42.5006 31.8114C41.6197 31.8114 40.9063 32.5256 40.9063 33.4057L40.9064 36.6078Z" fill="white"/>
<path d="M56.199 38.7017H50.9165C50.3385 38.7017 49.8696 38.2329 49.8696 37.6548V33.4059C49.8696 32.0883 50.5726 30.871 51.7137 30.2121C52.8548 29.5533 54.2607 29.5533 55.4018 30.2121C56.543 30.8709 57.2459 32.0883 57.2459 33.4059V37.6571C57.2444 38.2344 56.7763 38.7018 56.199 38.7018V38.7017ZM51.9635 36.6078H55.152V33.4057C55.152 32.5256 54.4386 31.8114 53.5577 31.8114C52.6776 31.8114 51.9635 32.5256 51.9635 33.4057L51.9635 36.6078Z" fill="white"/>
<path d="M67.2582 38.7017H61.9757C61.3977 38.7017 60.9288 38.2329 60.9288 37.6548V33.4059C60.9288 32.0883 61.6318 30.871 62.7729 30.2121C63.914 29.5533 65.3199 29.5533 66.461 30.2121C67.6022 30.8709 68.3051 32.0883 68.3051 33.4059V37.6571C68.3036 38.2344 67.8355 38.7018 67.2582 38.7018V38.7017ZM63.0227 36.6078H66.2112V33.4057C66.2112 32.5256 65.4971 31.8114 64.6169 31.8114C63.736 31.8114 63.0227 32.5256 63.0227 33.4057L63.0227 36.6078Z" fill="white"/>
<path d="M81.0798 54.0011H76.816C76.2379 54.0011 75.769 53.5323 75.769 52.9542V49.4935C75.769 48.3561 76.3755 47.3054 77.3603 46.7372C78.3452 46.169 79.558 46.1689 80.5429 46.7372C81.5279 47.3055 82.1342 48.3562 82.1342 49.4935V52.9542C82.1342 53.2331 82.0228 53.5001 81.8246 53.6968C81.6272 53.8934 81.3588 54.0026 81.0798 54.0011L81.0798 54.0011ZM77.8583 51.9072H80.0359V49.4934C80.0351 48.9072 79.5603 48.4323 78.974 48.4316C78.6846 48.4211 78.4042 48.5288 78.1948 48.7284C77.9854 48.9281 77.865 49.204 77.862 49.4934L77.8583 51.9072Z" fill="white"/>
<path d="M89.4128 54.0011H85.1415C84.5635 54.0011 84.0946 53.5323 84.0946 52.9542V49.4935C84.0946 48.3561 84.7011 47.3054 85.6859 46.7372C86.6707 46.169 87.8836 46.1689 88.8685 46.7372C89.8534 47.3055 90.4598 48.3562 90.4598 49.4935V52.9542C90.4598 53.2316 90.3491 53.4978 90.1532 53.6945C89.9565 53.8904 89.6903 54.0011 89.4129 54.0011H89.4128ZM86.1913 51.9072H88.3689V49.4934C88.3682 48.9072 87.8933 48.4323 87.307 48.4316C87.0176 48.4211 86.7372 48.5288 86.5278 48.7284C86.3185 48.9281 86.1981 49.204 86.1951 49.4934L86.1913 51.9072Z" fill="white"/>
<path d="M97.744 54.0011H93.4727C92.8939 54.0011 92.4258 53.5323 92.4258 52.9542V49.4935C92.4258 48.3561 93.0322 47.3054 94.0171 46.7372C95.0012 46.1689 96.2147 46.1689 97.1997 46.7372C98.1837 47.3055 98.791 48.3562 98.791 49.4935V52.9542C98.791 53.2316 98.6803 53.4978 98.4844 53.6945C98.2877 53.8904 98.0215 54.0011 97.744 54.0011H97.744ZM94.5225 51.9072H96.7001V49.4934C96.6993 48.9072 96.2245 48.4323 95.6382 48.4316C95.3488 48.4211 95.0677 48.5288 94.859 48.7284C94.6496 48.9281 94.5292 49.204 94.5262 49.4934L94.5225 51.9072Z" fill="white"/>
<path d="M58.1382 77H48.9733C48.3953 77 47.9264 76.5311 47.9264 75.9531V64.3826C47.9264 62.3726 48.9987 60.5143 50.7395 59.5093C52.4811 58.5043 54.6258 58.5043 56.3673 59.5093C58.1082 60.5143 59.1804 62.3726 59.1804 64.3826V75.9531C59.1804 76.5296 58.7145 76.9977 58.138 77H58.1382ZM50.0239 74.9061H57.0913V64.3824C57.0913 63.1201 56.4175 61.9535 55.3242 61.3225C54.231 60.6914 52.8842 60.6914 51.7909 61.3225C50.6976 61.9537 50.0239 63.1202 50.0239 64.3824V74.9061Z" fill="white"/>
<path d="M68.0277 56.1031H62.3691C61.791 56.1031 61.3221 55.6342 61.3221 55.0562V44.8106C61.3221 43.4257 62.061 42.1462 63.2604 41.4538C64.4599 40.7614 65.9374 40.7614 67.1362 41.4538C68.3356 42.1463 69.0745 43.4258 69.0745 44.8106V55.059C69.0722 55.6363 68.6041 56.1029 68.0275 56.1029L68.0277 56.1031ZM63.4145 54.0092H66.9792V44.8106C66.9792 43.8265 66.1813 43.0286 65.1964 43.0286C64.2124 43.0286 63.4145 43.8265 63.4145 44.8106L63.4145 54.0092Z" fill="white"/>
<path d="M44.6957 56.1031H39.0372C38.4591 56.1031 37.9902 55.6342 37.9902 55.0562V44.8106C37.9902 43.4257 38.7291 42.1462 39.9285 41.4538C41.128 40.7614 42.6055 40.7614 43.8043 41.4538C45.0037 42.1463 45.7425 43.4258 45.7425 44.8106V55.059C45.741 55.6363 45.2722 56.1029 44.6956 56.1029L44.6957 56.1031ZM40.0841 54.0092H43.6488V44.8106C43.6488 43.8265 42.8509 43.0286 41.8668 43.0286C40.882 43.0286 40.0841 43.8265 40.0841 44.8106L40.0841 54.0092Z" fill="white"/>
<path d="M58.0195 56.1031H48.8584C48.2804 56.1031 47.8115 55.6342 47.8115 55.0562V46.5628C47.8115 44.5528 48.8846 42.6945 50.6254 41.6895C52.3662 40.6845 54.5117 40.6845 56.2526 41.6895C57.9942 42.6945 59.0665 44.5528 59.0665 46.5628V55.0592C59.0643 55.6365 58.5961 56.1031 58.0196 56.1031L58.0195 56.1031ZM49.9052 54.0092H56.9726V46.5628C56.9726 45.3005 56.2988 44.1339 55.2055 43.5029C54.1123 42.8718 52.7655 42.8718 51.6722 43.5029C50.579 44.134 49.9052 45.3006 49.9052 46.5628V54.0092Z" fill="white"/>
<path d="M53.5324 24.5873C52.558 24.5873 51.6233 24.2007 50.9339 23.5112C50.2444 22.8218 49.8571 21.887 49.8571 20.9127C49.8571 19.9376 50.2444 19.0029 50.9339 18.3142C51.6233 17.6247 52.5581 17.2374 53.5324 17.2374C54.5067 17.2374 55.4415 17.6247 56.1309 18.3142C56.8204 19.0029 57.2077 19.9376 57.2077 20.9127C57.2062 21.8871 56.8181 22.8211 56.1294 23.5097C55.4407 24.1984 54.5067 24.5865 53.5324 24.5873L53.5324 24.5873ZM53.5324 19.3363C52.893 19.3363 52.3165 19.7214 52.0712 20.3129C51.8267 20.9036 51.962 21.5841 52.4145 22.0358C52.8669 22.4882 53.5474 22.6228 54.1381 22.3783C54.7289 22.133 55.114 21.5565 55.114 20.9164C55.1125 20.0437 54.4051 19.337 53.5324 19.3363L53.5324 19.3363Z" fill="white"/>
<path d="M27.7615 77H22.4806C21.9026 77 21.4337 76.5311 21.4337 75.9531V65.4003C21.4337 64.0827 22.1366 62.8653 23.277 62.2064C24.4181 61.5476 25.824 61.5476 26.9652 62.2064C28.1063 62.8652 28.8085 64.0826 28.8085 65.4003V75.9531C28.8085 76.2305 28.6986 76.4967 28.5019 76.6934C28.306 76.89 28.0397 77 27.7616 77H27.7615ZM23.5268 74.9061H26.7146V65.4002C26.7146 64.5201 26.0012 63.8067 25.121 63.8067C24.2409 63.8067 23.5275 64.5201 23.5275 65.4002L23.5268 74.9061Z" fill="white"/>
<path d="M16.597 77H11.3207C10.7427 77 10.2738 76.5311 10.2738 75.9531V65.4003C10.2738 64.0827 10.9767 62.8653 12.1178 62.2064C13.2582 61.5476 14.6641 61.5476 15.8052 62.2064C16.9464 62.8652 17.6493 64.0826 17.6493 65.4003V75.9531C17.6493 76.2313 17.5379 76.499 17.3405 76.6949C17.143 76.8915 16.8753 77.0015 16.5972 77H16.597ZM12.3623 74.9061H15.5501V65.4002C15.5501 64.5201 14.8367 63.8067 13.9565 63.8067C13.0764 63.8067 12.3623 64.5201 12.3623 65.4002L12.3623 74.9061Z" fill="white"/>
<path d="M30.2559 54.0011H25.9847C25.4066 54.0011 24.9377 53.5323 24.9377 52.9542V49.4935C24.9377 48.3561 25.5442 47.3054 26.529 46.7372C27.5139 46.169 28.7267 46.1689 29.7116 46.7372C30.6966 47.3055 31.3029 48.3562 31.3029 49.4935V52.9542C31.3029 53.2316 31.1923 53.4978 30.9963 53.6945C30.7997 53.8904 30.5334 54.0011 30.256 54.0011H30.2559ZM27.0345 51.9072H29.212V49.4934C29.2113 48.9072 28.7357 48.4316 28.1494 48.4316C27.86 48.4219 27.5796 48.5288 27.3702 48.7284C27.1616 48.9281 27.0412 49.204 27.0382 49.4934L27.0345 51.9072Z" fill="white"/>
<path d="M21.9228 54.0011H17.6515C17.0735 54.0011 16.6046 53.5323 16.6046 52.9542V49.4935C16.6046 48.3561 17.2111 47.3054 18.1959 46.7372C19.1807 46.1689 20.3936 46.1689 21.3785 46.7372C22.3633 47.3055 22.9698 48.3562 22.9698 49.4935V52.9542C22.9698 53.2316 22.8591 53.4978 22.6632 53.6945C22.4665 53.8904 22.2003 54.0011 21.9229 54.0011H21.9228ZM18.7014 51.9072H20.8789V49.4934C20.8782 48.9072 20.4026 48.4316 19.8163 48.4316C19.5269 48.4211 19.2465 48.5288 19.0371 48.7284C18.8277 48.9281 18.7081 49.204 18.7051 49.4934L18.7014 51.9072Z" fill="white"/>
<path d="M13.5897 54.0011H9.3184C8.74036 54.0011 8.27148 53.5323 8.27148 52.9542V49.4935C8.27148 48.3561 8.87795 47.3054 9.86278 46.7372C10.8476 46.1689 12.0604 46.1689 13.0454 46.7372C14.0302 47.3055 14.6367 48.3562 14.6367 49.4935V52.9542C14.6367 53.2316 14.5267 53.4978 14.3301 53.6945C14.1334 53.8904 13.8672 54.0011 13.5897 54.0011H13.5897ZM10.3682 51.9072H12.5458L12.5465 49.4934C12.545 48.9072 12.0702 48.4323 11.4839 48.4316C11.1953 48.4211 10.9141 48.5288 10.7047 48.7284C10.4953 48.9281 10.3757 49.204 10.372 49.4934L10.3682 51.9072Z" fill="white"/>
<path d="M104.772 39.812L102.166 36.2885C101.7 35.6349 100.959 35.2334 100.156 35.1997H72.8329V27.1243C73.5134 26.9598 74.0129 26.3802 74.0765 25.684C74.1408 24.9871 73.7542 24.3268 73.1156 24.0412L54.7371 14.5533C54.7117 14.5406 54.6863 14.5279 54.6609 14.5174C54.6354 14.5062 54.6063 14.5032 54.5771 14.4935V10.804C55.5148 11.4516 56.6201 11.8165 57.7597 11.8546C58.3991 11.8539 59.0317 11.717 59.6135 11.4516C60.531 10.9618 61.5787 10.7703 62.6098 10.9057C63.0824 11.0066 63.5752 10.8862 63.9498 10.5804C64.3282 10.273 64.5473 9.81093 64.5458 9.32411V4.66921C64.5503 3.96553 64.0964 3.34113 63.4249 3.13025C61.8515 2.74514 60.1906 2.95377 58.761 3.71651C57.0411 4.48899 55.2269 2.9433 54.5734 2.30245V1.04617V1.04692C54.5734 0.468134 54.1045 0 53.5264 0C52.9484 0 52.4795 0.468115 52.4795 1.04692V14.4936C52.4534 14.5033 52.4257 14.5071 52.401 14.5168C52.3756 14.5265 52.3494 14.54 52.324 14.5527L33.9507 24.0421C33.3121 24.3277 32.9263 24.988 32.9898 25.6849C33.0534 26.3811 33.5537 26.9607 34.2334 27.1252V35.2014H6.9158C6.11343 35.235 5.37162 35.6373 4.90575 36.2902L2.25707 39.8683C1.93477 40.367 1.90785 41.0012 2.18603 41.5261C2.46345 42.0511 3.00336 42.3846 3.59711 42.398V75.9526C3.59711 76.23 3.70778 76.4962 3.90371 76.6929C4.10037 76.8895 4.36659 76.9995 4.64402 76.9995H102.423C102.7 76.9995 102.966 76.8896 103.163 76.6929C103.36 76.4962 103.47 76.23 103.47 75.9526V42.398C104.054 42.3838 104.588 42.06 104.869 41.5478C105.164 40.9959 105.126 40.3267 104.771 39.8122L104.772 39.812ZM54.5795 4.97491C56.0302 6.05846 57.9409 6.30522 59.6188 5.62697C60.4922 5.17679 61.474 4.97789 62.4537 5.05341V8.77374C61.1787 8.71392 59.909 8.97788 58.7627 9.54171C57.0435 10.3149 55.2309 8.77001 54.5751 8.1269L54.5795 4.97491ZM53.2454 16.437C53.4316 16.3682 53.6358 16.3682 53.8227 16.437L70.5732 25.0868H36.4941L53.2454 16.437ZM4.53123 40.3107L6.58474 37.5319C6.68121 37.398 6.83078 37.312 6.99453 37.2956H34.2337V40.3106L4.53123 40.3107ZM5.69031 42.4046H34.2331V74.9063H5.69031V42.4046ZM36.3274 41.3577V27.2178H70.7395V74.9059H36.3274V41.3577ZM101.377 74.9065H72.8338V42.4049H101.377V74.9065ZM102.424 40.3125H72.8336V37.2974H100.073C100.237 37.3131 100.387 37.3999 100.482 37.5345L102.54 40.3125L102.424 40.3125Z" fill="white"/>
</svg>
