<svg width="30" height="30" viewBox="0 0 30 30" fill="none" xmlns="http://www.w3.org/2000/svg">
<path d="M0 15C0 6.71575 6.71575 0 15 0C23.2843 0 30 6.71575 30 15C30 23.2843 23.2843 30 15 30C6.71575 30 0 23.2843 0 15Z" fill="white"/>
<path d="M21.5436 20.7687H8.43808C7.92989 20.7687 7.50195 20.3542 7.50195 19.8326V10.3646C7.50195 9.85643 7.91652 9.4285 8.43808 9.4285H21.5436C22.0518 9.4285 22.4797 9.84306 22.4797 10.3646V19.8326C22.4797 20.3542 22.0651 20.7687 21.5436 20.7687Z" fill="#E3E3E3"/>
<path opacity="0.1" d="M9.37418 20.7687L14.9774 16.2621L15.0176 16.0214L9.24043 11.8624L9.22705 20.5682L9.37418 20.7687Z" fill="#231F20"/>
<path d="M8.43808 20.7687C7.91652 20.7687 7.50195 20.3542 7.50195 19.8326V10.3512C7.50195 9.82968 7.91652 9.73605 8.43808 9.73605C8.95964 9.73605 9.3742 9.84305 9.3742 10.3512V20.7687H8.43808Z" fill="#D54B3D"/>
<path fill-rule="evenodd" clip-rule="evenodd" d="M7.50195 10.3512C7.50195 9.84305 7.91652 9.73605 8.43808 9.73605C8.95964 9.73605 9.3742 9.82968 9.3742 10.3512V20.7687H8.43808C7.91652 20.7687 7.50195 20.3542 7.50195 19.8326V10.3512ZM9.24044 10.3512C9.24044 10.0704 9.10669 9.86981 8.43806 9.86981C7.76944 9.86981 7.63569 10.057 7.63569 10.3512V19.8326C7.63569 20.2739 7.99675 20.635 8.43806 20.635H9.24044V10.3512Z" fill="#D72B27"/>
<path d="M21.5435 20.7687H20.6074V10.3245C20.6074 9.80293 21.022 9.73605 21.5435 9.73605C22.065 9.73605 22.4796 9.80293 22.4796 10.3245V19.846C22.4796 20.3542 22.065 20.7687 21.5435 20.7687Z" fill="#D54B3D"/>
<path fill-rule="evenodd" clip-rule="evenodd" d="M20.6074 10.3245C20.6074 9.80293 21.022 9.73605 21.5435 9.73605C22.065 9.73605 22.4796 9.80293 22.4796 10.3245V19.846C22.4796 20.3676 22.065 20.7821 21.5435 20.7821H20.6074V10.3245ZM22.3459 10.3245C22.3459 9.99013 22.1453 9.86981 21.5436 9.86981C20.9418 9.86981 20.7412 9.97675 20.7412 10.3245V20.6484H21.5436C21.9849 20.6484 22.3459 20.2873 22.3459 19.846V10.3245Z" fill="#D72B27"/>
<path d="M17.5317 20.7688L7.58032 10.7401L8.10376 10.953L15.0309 15.9411L22.4797 10.4791V19.846C22.4797 20.3542 22.0651 20.7688 21.5436 20.7688H17.5317Z" fill="url(#paint0_linear_65_607)"/>
<path d="M14.9774 16.2621L7.90309 11.1269C7.48853 10.8193 7.36821 10.2309 7.67578 9.8163C7.98334 9.40174 8.58515 9.30812 9.01309 9.61568L14.9908 13.9619L21.0086 9.56224C21.4232 9.25462 22.0116 9.34824 22.3192 9.77618C22.6267 10.1907 22.5331 10.7792 22.1052 11.0867L14.9774 16.2621Z" fill="#D54B3D"/>
<path fill-rule="evenodd" clip-rule="evenodd" d="M20.9952 9.54888C21.1557 9.4285 21.3563 9.375 21.5436 9.375C21.8377 9.375 22.1186 9.50875 22.3058 9.77619C22.6 10.2041 22.5064 10.7792 22.0919 11.0868L14.9774 16.2754L7.90312 11.1269C7.48856 10.8192 7.36825 10.2309 7.66244 9.81631C7.84962 9.56225 8.14387 9.4285 8.43806 9.4285C8.63869 9.4285 8.83925 9.482 8.99975 9.60231L14.9774 13.9486L20.9952 9.54888ZM22.1988 9.84307C22.0384 9.62907 21.7976 9.50875 21.5436 9.50875C21.3697 9.50875 21.2093 9.56225 21.0621 9.65582L15.0577 14.0556L14.9774 14.109L14.8972 14.0556L8.93288 9.72269C8.79913 9.61569 8.62532 9.56225 8.45144 9.56225C8.18401 9.56225 7.92988 9.69594 7.78282 9.89657C7.52869 10.2443 7.62232 10.7524 7.98338 11.0199L14.9774 16.1016L22.025 10.9664C22.3727 10.6989 22.4529 10.2041 22.1988 9.84307Z" fill="#D72B27"/>
<defs>
<linearGradient id="paint0_linear_65_607" x1="7.58088" y1="20.77" x2="22.4845" y2="20.77" gradientUnits="userSpaceOnUse">
<stop stop-opacity="0.1"/>
<stop offset="1" stop-opacity="0.2"/>
</linearGradient>
</defs>
</svg>
