<svg width="30" height="30" viewBox="0 0 30 30" fill="none" xmlns="http://www.w3.org/2000/svg">
<path d="M0 15C0 6.71573 6.71573 0 15 0C23.2843 0 30 6.71573 30 15C30 23.2843 23.2843 30 15 30C6.71573 30 0 23.2843 0 15Z" fill="#52DA85"/>
<path d="M23.9571 20.3232C23.9216 20.2194 23.8387 20.0593 23.7795 19.9674C23.4065 19.4041 21.4023 17.8356 20.4017 17.3227C19.8303 17.0292 19.407 16.9313 19.0932 17.0232C18.7557 17.1181 18.578 17.2752 18.0126 17.9779C17.7847 18.2596 17.5508 18.5235 17.4886 18.565C17.3347 18.6717 17.0327 18.7577 16.8196 18.7577C16.3252 18.7547 15.4281 18.4345 14.7384 18.0135C14.2025 17.6874 13.5157 17.1033 12.9888 16.5251C12.367 15.8462 11.9438 15.2473 11.6092 14.5712C11.177 13.7025 11.0675 13.1718 11.248 12.7834C11.2924 12.6855 11.3516 12.5818 11.3783 12.5491C11.4049 12.5195 11.6832 12.2912 11.9911 12.0422C12.595 11.5619 12.6927 11.4522 12.8052 11.1231C12.9473 10.705 12.9088 10.278 12.6898 9.84814C12.521 9.52198 12.0799 8.81041 11.7602 8.35086C11.3368 7.74604 10.2829 6.45334 10.0727 6.27836C9.69377 5.97004 9.20831 5.91664 8.67242 6.12422C8.10703 6.34363 7.04716 7.19752 6.5942 7.79347C6.18566 8.33307 6.02881 8.71553 6.0051 9.21957C5.9844 9.63464 6.01991 9.80661 6.23898 10.3373C7.95307 14.5001 10.5108 17.8237 14.0249 20.4625C15.8604 21.8412 17.7639 22.8908 19.7385 23.6083C20.8901 24.0264 21.3904 24.0471 21.9796 23.7032C22.2282 23.5549 22.844 22.9234 23.1874 22.4639C23.7558 21.6989 23.966 21.3461 24.0252 21.0644C24.0667 20.8717 24.0341 20.5367 23.9571 20.3232Z" fill="white"/>
</svg>
