<svg width="123" height="16" viewBox="0 0 123 16" fill="none" xmlns="http://www.w3.org/2000/svg">
<path d="M122.707 8.70711C123.098 8.31658 123.098 7.68342 122.707 7.29289L116.343 0.928932C115.953 0.538408 115.319 0.538408 114.929 0.928932C114.538 1.31946 114.538 1.95262 114.929 2.34315L120.586 8L114.929 13.6569C114.538 14.0474 114.538 14.6805 114.929 15.0711C115.319 15.4616 115.953 15.4616 116.343 15.0711L122.707 8.70711ZM0 9H0.983871V7H0V9ZM2.95161 9H4.91935V7H2.95161V9ZM6.8871 9H8.85484V7H6.8871V9ZM10.8226 9H12.7903V7H10.8226V9ZM14.7581 9H16.7258V7H14.7581V9ZM18.6936 9H20.6613V7H18.6936V9ZM22.629 9H24.5968V7H22.629V9ZM26.5645 9H28.5323V7H26.5645V9ZM30.5 9H32.4678V7H30.5V9ZM34.4355 9H36.4032V7H34.4355V9ZM38.371 9H40.3387V7H38.371V9ZM42.3065 9H44.2742V7H42.3065V9ZM46.242 9H48.2097V7H46.242V9ZM50.1774 9H52.1452V7H50.1774V9ZM54.1129 9H56.0807V7H54.1129V9ZM58.0484 9H60.0162V7H58.0484V9ZM61.9839 9H63.9516V7H61.9839V9ZM65.9194 9H67.8871V7H65.9194V9ZM69.8549 9H71.8226V7H69.8549V9ZM73.7904 9H75.7581V7H73.7904V9ZM77.7258 9H79.6936V7H77.7258V9ZM81.6613 9H83.6291V7H81.6613V9ZM85.5968 9H87.5646V7H85.5968V9ZM89.5323 9H91.5V7H89.5323V9ZM93.4678 9H95.4355V7H93.4678V9ZM97.4033 9H99.371V7H97.4033V9ZM101.339 9H103.307V7H101.339V9ZM105.274 9H107.242V7H105.274V9ZM109.21 9H111.177V7H109.21V9ZM113.145 9H115.113V7H113.145V9ZM117.081 9H119.048V7H117.081V9ZM121.016 9H122V7H121.016V9Z" fill="#909090"/>
</svg>
