<svg width="30" height="30" viewBox="0 0 30 30" fill="none" xmlns="http://www.w3.org/2000/svg">
<path d="M15 30C23.2843 30 30 23.2843 30 15C30 6.71575 23.2843 0 15 0C6.71575 0 0 6.71575 0 15C0 23.2843 6.71575 30 15 30Z" fill="#2DA5D8"/>
<path d="M5.58642 15.7337C7.33991 14.7679 9.29728 13.9617 11.1262 13.1515C14.2725 11.8244 17.4314 10.5202 20.6222 9.30612C21.243 9.09925 22.3584 8.89693 22.4678 9.81693C22.4079 11.1192 22.1615 12.4138 21.9925 13.7084C21.5636 16.5554 21.0678 19.3927 20.5844 22.2303C20.4178 23.1755 19.2338 23.6648 18.4762 23.0599C16.6554 21.8301 14.8207 20.6122 13.0232 19.3538C12.4343 18.7555 12.9803 17.8963 13.5062 17.4691C15.0058 15.9912 16.5962 14.7356 18.0175 13.1813C18.4008 12.2555 17.2681 13.0357 16.8945 13.2748C14.8415 14.6896 12.8387 16.1907 10.6742 17.4341C9.5686 18.0427 8.27997 17.5226 7.17485 17.1829C6.18396 16.7727 4.73195 16.3594 5.58632 15.7338L5.58642 15.7337Z" fill="white"/>
</svg>
